solid ASCII
  facet normal 0.000000e+00 0.000000e+00 1.000000e+00
    outer loop
      vertex   -4.982645e+01 5.390177e+01 1.800000e+01
      vertex   -4.846415e+01 5.390177e+01 1.800000e+01
      vertex   -4.982645e+01 5.710177e+01 1.800000e+01
    endloop
  endfacet
  facet normal -0.000000e+00 0.000000e+00 1.000000e+00
    outer loop
      vertex   -4.982645e+01 5.710177e+01 1.800000e+01
      vertex   -4.846415e+01 5.390177e+01 1.800000e+01
      vertex   -4.846415e+01 5.710177e+01 1.800000e+01
    endloop
  endfacet
  facet normal 0.000000e+00 0.000000e+00 1.000000e+00
    outer loop
      vertex   -4.982645e+01 4.606015e+01 1.800000e+01
      vertex   -4.846415e+01 4.606015e+01 1.800000e+01
      vertex   -4.982645e+01 5.040177e+01 1.800000e+01
    endloop
  endfacet
  facet normal -0.000000e+00 0.000000e+00 1.000000e+00
    outer loop
      vertex   -4.982645e+01 5.040177e+01 1.800000e+01
      vertex   -4.846415e+01 4.606015e+01 1.800000e+01
      vertex   -4.846415e+01 5.040177e+01 1.800000e+01
    endloop
  endfacet
  facet normal -0.000000e+00 -1.000000e+00 -0.000000e+00
    outer loop
      vertex   -4.846415e+01 4.606015e+01 1.800000e+01
      vertex   -4.982645e+01 4.606015e+01 1.800000e+01
      vertex   -4.846415e+01 4.606015e+01 -1.000000e+00
    endloop
  endfacet
  facet normal 0.000000e+00 -1.000000e+00 0.000000e+00
    outer loop
      vertex   -4.846415e+01 4.606015e+01 -1.000000e+00
      vertex   -4.982645e+01 4.606015e+01 1.800000e+01
      vertex   -4.982645e+01 4.606015e+01 -1.000000e+00
    endloop
  endfacet
  facet normal -1.000000e+00 -0.000000e+00 -0.000000e+00
    outer loop
      vertex   -4.982645e+01 5.040177e+01 1.800000e+01
      vertex   -4.982645e+01 5.040177e+01 1.463804e+01
      vertex   -4.982645e+01 4.606015e+01 1.800000e+01
    endloop
  endfacet
  facet normal -1.000000e+00 0.000000e+00 0.000000e+00
    outer loop
      vertex   -4.982645e+01 4.606015e+01 1.800000e+01
      vertex   -4.982645e+01 5.040177e+01 1.463804e+01
      vertex   -4.982645e+01 5.041557e+01 1.441870e+01
    endloop
  endfacet
  facet normal -1.000000e+00 0.000000e+00 0.000000e+00
    outer loop
      vertex   -4.982645e+01 4.606015e+01 1.800000e+01
      vertex   -4.982645e+01 5.041557e+01 1.441870e+01
      vertex   -4.982645e+01 5.045675e+01 1.420283e+01
    endloop
  endfacet
  facet normal -1.000000e+00 -0.000000e+00 -0.000000e+00
    outer loop
      vertex   -4.982645e+01 5.045675e+01 1.420283e+01
      vertex   -4.982645e+01 5.052466e+01 1.399382e+01
      vertex   -4.982645e+01 4.606015e+01 1.800000e+01
    endloop
  endfacet
  facet normal -1.000000e+00 0.000000e+00 0.000000e+00
    outer loop
      vertex   -4.982645e+01 4.606015e+01 1.800000e+01
      vertex   -4.982645e+01 5.052466e+01 1.399382e+01
      vertex   -4.982645e+01 4.606015e+01 -1.000000e+00
    endloop
  endfacet
  facet normal -1.000000e+00 0.000000e+00 0.000000e+00
    outer loop
      vertex   -4.982645e+01 4.606015e+01 -1.000000e+00
      vertex   -4.982645e+01 5.052466e+01 1.399382e+01
      vertex   -4.982645e+01 5.061823e+01 1.379497e+01
    endloop
  endfacet
  facet normal -1.000000e+00 0.000000e+00 0.000000e+00
    outer loop
      vertex   -4.982645e+01 4.606015e+01 -1.000000e+00
      vertex   -4.982645e+01 5.061823e+01 1.379497e+01
      vertex   -4.982645e+01 5.073599e+01 1.360941e+01
    endloop
  endfacet
  facet normal -1.000000e+00 0.000000e+00 -0.000000e+00
    outer loop
      vertex   -4.982645e+01 5.073599e+01 1.360941e+01
      vertex   -4.982645e+01 5.087607e+01 1.344008e+01
      vertex   -4.982645e+01 4.606015e+01 -1.000000e+00
    endloop
  endfacet
  facet normal -1.000000e+00 0.000000e+00 0.000000e+00
    outer loop
      vertex   -4.982645e+01 4.606015e+01 -1.000000e+00
      vertex   -4.982645e+01 5.087607e+01 1.344008e+01
      vertex   -4.982645e+01 5.103628e+01 1.328964e+01
    endloop
  endfacet
  facet normal -1.000000e+00 0.000000e+00 0.000000e+00
    outer loop
      vertex   -4.982645e+01 4.606015e+01 -1.000000e+00
      vertex   -4.982645e+01 5.103628e+01 1.328964e+01
      vertex   -4.982645e+01 5.121407e+01 1.316046e+01
    endloop
  endfacet
  facet normal -1.000000e+00 0.000000e+00 -0.000000e+00
    outer loop
      vertex   -4.982645e+01 5.121407e+01 1.316046e+01
      vertex   -4.982645e+01 5.140666e+01 1.305459e+01
      vertex   -4.982645e+01 4.606015e+01 -1.000000e+00
    endloop
  endfacet
  facet normal -1.000000e+00 0.000000e+00 0.000000e+00
    outer loop
      vertex   -4.982645e+01 4.606015e+01 -1.000000e+00
      vertex   -4.982645e+01 5.140666e+01 1.305459e+01
      vertex   -4.982645e+01 5.161099e+01 1.297369e+01
    endloop
  endfacet
  facet normal -1.000000e+00 0.000000e+00 0.000000e+00
    outer loop
      vertex   -4.982645e+01 4.606015e+01 -1.000000e+00
      vertex   -4.982645e+01 5.161099e+01 1.297369e+01
      vertex   -4.982645e+01 5.182385e+01 1.291903e+01
    endloop
  endfacet
  facet normal -1.000000e+00 0.000000e+00 -0.000000e+00
    outer loop
      vertex   -4.982645e+01 5.182385e+01 1.291903e+01
      vertex   -4.982645e+01 5.204189e+01 1.289149e+01
      vertex   -4.982645e+01 4.606015e+01 -1.000000e+00
    endloop
  endfacet
  facet normal -1.000000e+00 0.000000e+00 0.000000e+00
    outer loop
      vertex   -4.982645e+01 4.606015e+01 -1.000000e+00
      vertex   -4.982645e+01 5.204189e+01 1.289149e+01
      vertex   -4.982645e+01 5.710177e+01 -1.000000e+00
    endloop
  endfacet
  facet normal -1.000000e+00 0.000000e+00 0.000000e+00
    outer loop
      vertex   -4.982645e+01 5.710177e+01 -1.000000e+00
      vertex   -4.982645e+01 5.204189e+01 1.289149e+01
      vertex   -4.982645e+01 5.226165e+01 1.289149e+01
    endloop
  endfacet
  facet normal -1.000000e+00 0.000000e+00 0.000000e+00
    outer loop
      vertex   -4.982645e+01 5.710177e+01 -1.000000e+00
      vertex   -4.982645e+01 5.226165e+01 1.289149e+01
      vertex   -4.982645e+01 5.247969e+01 1.291903e+01
    endloop
  endfacet
  facet normal -1.000000e+00 0.000000e+00 0.000000e+00
    outer loop
      vertex   -4.982645e+01 5.247969e+01 1.291903e+01
      vertex   -4.982645e+01 5.269255e+01 1.297369e+01
      vertex   -4.982645e+01 5.710177e+01 -1.000000e+00
    endloop
  endfacet
  facet normal -1.000000e+00 0.000000e+00 0.000000e+00
    outer loop
      vertex   -4.982645e+01 5.710177e+01 -1.000000e+00
      vertex   -4.982645e+01 5.269255e+01 1.297369e+01
      vertex   -4.982645e+01 5.289688e+01 1.305459e+01
    endloop
  endfacet
  facet normal -1.000000e+00 0.000000e+00 0.000000e+00
    outer loop
      vertex   -4.982645e+01 5.710177e+01 -1.000000e+00
      vertex   -4.982645e+01 5.289688e+01 1.305459e+01
      vertex   -4.982645e+01 5.308947e+01 1.316046e+01
    endloop
  endfacet
  facet normal -1.000000e+00 0.000000e+00 0.000000e+00
    outer loop
      vertex   -4.982645e+01 5.308947e+01 1.316046e+01
      vertex   -4.982645e+01 5.326726e+01 1.328964e+01
      vertex   -4.982645e+01 5.710177e+01 -1.000000e+00
    endloop
  endfacet
  facet normal -1.000000e+00 0.000000e+00 0.000000e+00
    outer loop
      vertex   -4.982645e+01 5.710177e+01 -1.000000e+00
      vertex   -4.982645e+01 5.326726e+01 1.328964e+01
      vertex   -4.982645e+01 5.342746e+01 1.344008e+01
    endloop
  endfacet
  facet normal -1.000000e+00 0.000000e+00 0.000000e+00
    outer loop
      vertex   -4.982645e+01 5.710177e+01 -1.000000e+00
      vertex   -4.982645e+01 5.342746e+01 1.344008e+01
      vertex   -4.982645e+01 5.356755e+01 1.360941e+01
    endloop
  endfacet
  facet normal -1.000000e+00 0.000000e+00 0.000000e+00
    outer loop
      vertex   -4.982645e+01 5.356755e+01 1.360941e+01
      vertex   -4.982645e+01 5.368531e+01 1.379497e+01
      vertex   -4.982645e+01 5.710177e+01 -1.000000e+00
    endloop
  endfacet
  facet normal -1.000000e+00 0.000000e+00 0.000000e+00
    outer loop
      vertex   -4.982645e+01 5.710177e+01 -1.000000e+00
      vertex   -4.982645e+01 5.368531e+01 1.379497e+01
      vertex   -4.982645e+01 5.377888e+01 1.399382e+01
    endloop
  endfacet
  facet normal -1.000000e+00 0.000000e+00 0.000000e+00
    outer loop
      vertex   -4.982645e+01 5.710177e+01 -1.000000e+00
      vertex   -4.982645e+01 5.377888e+01 1.399382e+01
      vertex   -4.982645e+01 5.710177e+01 1.800000e+01
    endloop
  endfacet
  facet normal -1.000000e+00 0.000000e+00 0.000000e+00
    outer loop
      vertex   -4.982645e+01 5.710177e+01 1.800000e+01
      vertex   -4.982645e+01 5.377888e+01 1.399382e+01
      vertex   -4.982645e+01 5.384679e+01 1.420283e+01
    endloop
  endfacet
  facet normal -1.000000e+00 0.000000e+00 0.000000e+00
    outer loop
      vertex   -4.982645e+01 5.710177e+01 1.800000e+01
      vertex   -4.982645e+01 5.384679e+01 1.420283e+01
      vertex   -4.982645e+01 5.388797e+01 1.441870e+01
    endloop
  endfacet
  facet normal -1.000000e+00 0.000000e+00 0.000000e+00
    outer loop
      vertex   -4.982645e+01 5.388797e+01 1.441870e+01
      vertex   -4.982645e+01 5.390177e+01 1.463804e+01
      vertex   -4.982645e+01 5.710177e+01 1.800000e+01
    endloop
  endfacet
  facet normal -1.000000e+00 -0.000000e+00 0.000000e+00
    outer loop
      vertex   -4.982645e+01 5.710177e+01 1.800000e+01
      vertex   -4.982645e+01 5.390177e+01 1.463804e+01
      vertex   -4.982645e+01 5.390177e+01 1.800000e+01
    endloop
  endfacet
  facet normal 0.000000e+00 -1.000000e+00 0.000000e+00
    outer loop
      vertex   -4.982645e+01 5.390177e+01 1.800000e+01
      vertex   -4.982645e+01 5.390177e+01 1.463804e+01
      vertex   -4.846415e+01 5.390177e+01 1.800000e+01
    endloop
  endfacet
  facet normal 0.000000e+00 -1.000000e+00 -0.000000e+00
    outer loop
      vertex   -4.846415e+01 5.390177e+01 1.800000e+01
      vertex   -4.982645e+01 5.390177e+01 1.463804e+01
      vertex   -4.846415e+01 5.390177e+01 1.463804e+01
    endloop
  endfacet
  facet normal -0.000000e+00 9.980267e-01 6.279052e-02
    outer loop
      vertex   -4.982645e+01 5.040177e+01 1.463804e+01
      vertex   -4.846415e+01 5.040177e+01 1.463804e+01
      vertex   -4.982645e+01 5.041557e+01 1.441870e+01
    endloop
  endfacet
  facet normal -0.000000e+00 9.980267e-01 6.279052e-02
    outer loop
      vertex   -4.982645e+01 5.041557e+01 1.441870e+01
      vertex   -4.846415e+01 5.040177e+01 1.463804e+01
      vertex   -4.846415e+01 5.041557e+01 1.441870e+01
    endloop
  endfacet
  facet normal -0.000000e+00 9.822873e-01 1.873813e-01
    outer loop
      vertex   -4.982645e+01 5.041557e+01 1.441870e+01
      vertex   -4.846415e+01 5.041557e+01 1.441870e+01
      vertex   -4.982645e+01 5.045675e+01 1.420283e+01
    endloop
  endfacet
  facet normal -0.000000e+00 9.822873e-01 1.873813e-01
    outer loop
      vertex   -4.982645e+01 5.045675e+01 1.420283e+01
      vertex   -4.846415e+01 5.041557e+01 1.441870e+01
      vertex   -4.846415e+01 5.045675e+01 1.420283e+01
    endloop
  endfacet
  facet normal -0.000000e+00 9.510565e-01 3.090170e-01
    outer loop
      vertex   -4.982645e+01 5.045675e+01 1.420283e+01
      vertex   -4.846415e+01 5.045675e+01 1.420283e+01
      vertex   -4.982645e+01 5.052466e+01 1.399382e+01
    endloop
  endfacet
  facet normal -0.000000e+00 9.510565e-01 3.090170e-01
    outer loop
      vertex   -4.982645e+01 5.052466e+01 1.399382e+01
      vertex   -4.846415e+01 5.045675e+01 1.420283e+01
      vertex   -4.846415e+01 5.052466e+01 1.399382e+01
    endloop
  endfacet
  facet normal -0.000000e+00 9.048271e-01 4.257793e-01
    outer loop
      vertex   -4.982645e+01 5.052466e+01 1.399382e+01
      vertex   -4.846415e+01 5.052466e+01 1.399382e+01
      vertex   -4.982645e+01 5.061823e+01 1.379497e+01
    endloop
  endfacet
  facet normal -5.551879e-16 9.048271e-01 4.257793e-01
    outer loop
      vertex   -4.982645e+01 5.061823e+01 1.379497e+01
      vertex   -4.846415e+01 5.052466e+01 1.399382e+01
      vertex   -4.846415e+01 5.061823e+01 1.379497e+01
    endloop
  endfacet
  facet normal -6.986825e-16 8.443279e-01 5.358268e-01
    outer loop
      vertex   -4.982645e+01 5.061823e+01 1.379497e+01
      vertex   -4.846415e+01 5.061823e+01 1.379497e+01
      vertex   -4.982645e+01 5.073599e+01 1.360941e+01
    endloop
  endfacet
  facet normal -0.000000e+00 8.443279e-01 5.358268e-01
    outer loop
      vertex   -4.982645e+01 5.073599e+01 1.360941e+01
      vertex   -4.846415e+01 5.061823e+01 1.379497e+01
      vertex   -4.846415e+01 5.073599e+01 1.360941e+01
    endloop
  endfacet
  facet normal -0.000000e+00 7.705132e-01 6.374240e-01
    outer loop
      vertex   -4.982645e+01 5.073599e+01 1.360941e+01
      vertex   -4.846415e+01 5.073599e+01 1.360941e+01
      vertex   -4.982645e+01 5.087607e+01 1.344008e+01
    endloop
  endfacet
  facet normal -0.000000e+00 7.705132e-01 6.374240e-01
    outer loop
      vertex   -4.982645e+01 5.087607e+01 1.344008e+01
      vertex   -4.846415e+01 5.073599e+01 1.360941e+01
      vertex   -4.846415e+01 5.087607e+01 1.344008e+01
    endloop
  endfacet
  facet normal -0.000000e+00 6.845471e-01 7.289686e-01
    outer loop
      vertex   -4.982645e+01 5.087607e+01 1.344008e+01
      vertex   -4.846415e+01 5.087607e+01 1.344008e+01
      vertex   -4.982645e+01 5.103628e+01 1.328964e+01
    endloop
  endfacet
  facet normal -0.000000e+00 6.845471e-01 7.289686e-01
    outer loop
      vertex   -4.982645e+01 5.103628e+01 1.328964e+01
      vertex   -4.846415e+01 5.087607e+01 1.344008e+01
      vertex   -4.846415e+01 5.103628e+01 1.328964e+01
    endloop
  endfacet
  facet normal -0.000000e+00 5.877853e-01 8.090170e-01
    outer loop
      vertex   -4.982645e+01 5.103628e+01 1.328964e+01
      vertex   -4.846415e+01 5.103628e+01 1.328964e+01
      vertex   -4.982645e+01 5.121407e+01 1.316046e+01
    endloop
  endfacet
  facet normal -0.000000e+00 5.877853e-01 8.090170e-01
    outer loop
      vertex   -4.982645e+01 5.121407e+01 1.316046e+01
      vertex   -4.846415e+01 5.103628e+01 1.328964e+01
      vertex   -4.846415e+01 5.121407e+01 1.316046e+01
    endloop
  endfacet
  facet normal -0.000000e+00 4.817537e-01 8.763067e-01
    outer loop
      vertex   -4.982645e+01 5.121407e+01 1.316046e+01
      vertex   -4.846415e+01 5.121407e+01 1.316046e+01
      vertex   -4.982645e+01 5.140666e+01 1.305459e+01
    endloop
  endfacet
  facet normal -0.000000e+00 4.817537e-01 8.763067e-01
    outer loop
      vertex   -4.982645e+01 5.140666e+01 1.305459e+01
      vertex   -4.846415e+01 5.121407e+01 1.316046e+01
      vertex   -4.846415e+01 5.140666e+01 1.305459e+01
    endloop
  endfacet
  facet normal -0.000000e+00 3.681246e-01 9.297765e-01
    outer loop
      vertex   -4.982645e+01 5.140666e+01 1.305459e+01
      vertex   -4.846415e+01 5.140666e+01 1.305459e+01
      vertex   -4.982645e+01 5.161099e+01 1.297369e+01
    endloop
  endfacet
  facet normal -0.000000e+00 3.681246e-01 9.297765e-01
    outer loop
      vertex   -4.982645e+01 5.161099e+01 1.297369e+01
      vertex   -4.846415e+01 5.140666e+01 1.305459e+01
      vertex   -4.846415e+01 5.161099e+01 1.297369e+01
    endloop
  endfacet
  facet normal -0.000000e+00 2.486899e-01 9.685832e-01
    outer loop
      vertex   -4.982645e+01 5.161099e+01 1.297369e+01
      vertex   -4.846415e+01 5.161099e+01 1.297369e+01
      vertex   -4.982645e+01 5.182385e+01 1.291903e+01
    endloop
  endfacet
  facet normal -1.262968e-15 2.486899e-01 9.685832e-01
    outer loop
      vertex   -4.982645e+01 5.182385e+01 1.291903e+01
      vertex   -4.846415e+01 5.161099e+01 1.297369e+01
      vertex   -4.846415e+01 5.182385e+01 1.291903e+01
    endloop
  endfacet
  facet normal -1.293652e-15 1.253332e-01 9.921147e-01
    outer loop
      vertex   -4.982645e+01 5.182385e+01 1.291903e+01
      vertex   -4.846415e+01 5.182385e+01 1.291903e+01
      vertex   -4.982645e+01 5.204189e+01 1.289149e+01
    endloop
  endfacet
  facet normal -0.000000e+00 1.253332e-01 9.921147e-01
    outer loop
      vertex   -4.982645e+01 5.204189e+01 1.289149e+01
      vertex   -4.846415e+01 5.182385e+01 1.291903e+01
      vertex   -4.846415e+01 5.204189e+01 1.289149e+01
    endloop
  endfacet
  facet normal 0.000000e+00 0.000000e+00 1.000000e+00
    outer loop
      vertex   -4.982645e+01 5.204189e+01 1.289149e+01
      vertex   -4.846415e+01 5.204189e+01 1.289149e+01
      vertex   -4.982645e+01 5.226165e+01 1.289149e+01
    endloop
  endfacet
  facet normal -0.000000e+00 0.000000e+00 1.000000e+00
    outer loop
      vertex   -4.982645e+01 5.226165e+01 1.289149e+01
      vertex   -4.846415e+01 5.204189e+01 1.289149e+01
      vertex   -4.846415e+01 5.226165e+01 1.289149e+01
    endloop
  endfacet
  facet normal 0.000000e+00 -1.253332e-01 9.921147e-01
    outer loop
      vertex   -4.982645e+01 5.226165e+01 1.289149e+01
      vertex   -4.846415e+01 5.226165e+01 1.289149e+01
      vertex   -4.982645e+01 5.247969e+01 1.291903e+01
    endloop
  endfacet
  facet normal 0.000000e+00 -1.253332e-01 9.921147e-01
    outer loop
      vertex   -4.982645e+01 5.247969e+01 1.291903e+01
      vertex   -4.846415e+01 5.226165e+01 1.289149e+01
      vertex   -4.846415e+01 5.247969e+01 1.291903e+01
    endloop
  endfacet
  facet normal 0.000000e+00 -2.486899e-01 9.685832e-01
    outer loop
      vertex   -4.982645e+01 5.247969e+01 1.291903e+01
      vertex   -4.846415e+01 5.247969e+01 1.291903e+01
      vertex   -4.982645e+01 5.269255e+01 1.297369e+01
    endloop
  endfacet
  facet normal 0.000000e+00 -2.486899e-01 9.685832e-01
    outer loop
      vertex   -4.982645e+01 5.269255e+01 1.297369e+01
      vertex   -4.846415e+01 5.247969e+01 1.291903e+01
      vertex   -4.846415e+01 5.269255e+01 1.297369e+01
    endloop
  endfacet
  facet normal 0.000000e+00 -3.681246e-01 9.297765e-01
    outer loop
      vertex   -4.982645e+01 5.269255e+01 1.297369e+01
      vertex   -4.846415e+01 5.269255e+01 1.297369e+01
      vertex   -4.982645e+01 5.289688e+01 1.305459e+01
    endloop
  endfacet
  facet normal 0.000000e+00 -3.681246e-01 9.297765e-01
    outer loop
      vertex   -4.982645e+01 5.289688e+01 1.305459e+01
      vertex   -4.846415e+01 5.269255e+01 1.297369e+01
      vertex   -4.846415e+01 5.289688e+01 1.305459e+01
    endloop
  endfacet
  facet normal 0.000000e+00 -4.817537e-01 8.763067e-01
    outer loop
      vertex   -4.982645e+01 5.289688e+01 1.305459e+01
      vertex   -4.846415e+01 5.289688e+01 1.305459e+01
      vertex   -4.982645e+01 5.308947e+01 1.316046e+01
    endloop
  endfacet
  facet normal 0.000000e+00 -4.817537e-01 8.763067e-01
    outer loop
      vertex   -4.982645e+01 5.308947e+01 1.316046e+01
      vertex   -4.846415e+01 5.289688e+01 1.305459e+01
      vertex   -4.846415e+01 5.308947e+01 1.316046e+01
    endloop
  endfacet
  facet normal 0.000000e+00 -5.877853e-01 8.090170e-01
    outer loop
      vertex   -4.982645e+01 5.308947e+01 1.316046e+01
      vertex   -4.846415e+01 5.308947e+01 1.316046e+01
      vertex   -4.982645e+01 5.326726e+01 1.328964e+01
    endloop
  endfacet
  facet normal 0.000000e+00 -5.877853e-01 8.090170e-01
    outer loop
      vertex   -4.982645e+01 5.326726e+01 1.328964e+01
      vertex   -4.846415e+01 5.308947e+01 1.316046e+01
      vertex   -4.846415e+01 5.326726e+01 1.328964e+01
    endloop
  endfacet
  facet normal 0.000000e+00 -6.845471e-01 7.289686e-01
    outer loop
      vertex   -4.982645e+01 5.326726e+01 1.328964e+01
      vertex   -4.846415e+01 5.326726e+01 1.328964e+01
      vertex   -4.982645e+01 5.342746e+01 1.344008e+01
    endloop
  endfacet
  facet normal 0.000000e+00 -6.845471e-01 7.289686e-01
    outer loop
      vertex   -4.982645e+01 5.342746e+01 1.344008e+01
      vertex   -4.846415e+01 5.326726e+01 1.328964e+01
      vertex   -4.846415e+01 5.342746e+01 1.344008e+01
    endloop
  endfacet
  facet normal 0.000000e+00 -7.705132e-01 6.374240e-01
    outer loop
      vertex   -4.982645e+01 5.342746e+01 1.344008e+01
      vertex   -4.846415e+01 5.342746e+01 1.344008e+01
      vertex   -4.982645e+01 5.356755e+01 1.360941e+01
    endloop
  endfacet
  facet normal 0.000000e+00 -7.705132e-01 6.374240e-01
    outer loop
      vertex   -4.982645e+01 5.356755e+01 1.360941e+01
      vertex   -4.846415e+01 5.342746e+01 1.344008e+01
      vertex   -4.846415e+01 5.356755e+01 1.360941e+01
    endloop
  endfacet
  facet normal 0.000000e+00 -8.443279e-01 5.358268e-01
    outer loop
      vertex   -4.982645e+01 5.356755e+01 1.360941e+01
      vertex   -4.846415e+01 5.356755e+01 1.360941e+01
      vertex   -4.982645e+01 5.368531e+01 1.379497e+01
    endloop
  endfacet
  facet normal 6.986825e-16 -8.443279e-01 5.358268e-01
    outer loop
      vertex   -4.982645e+01 5.368531e+01 1.379497e+01
      vertex   -4.846415e+01 5.356755e+01 1.360941e+01
      vertex   -4.846415e+01 5.368531e+01 1.379497e+01
    endloop
  endfacet
  facet normal 5.551879e-16 -9.048271e-01 4.257793e-01
    outer loop
      vertex   -4.982645e+01 5.368531e+01 1.379497e+01
      vertex   -4.846415e+01 5.368531e+01 1.379497e+01
      vertex   -4.982645e+01 5.377888e+01 1.399382e+01
    endloop
  endfacet
  facet normal -4.719337e-15 -9.048271e-01 4.257793e-01
    outer loop
      vertex   -4.982645e+01 5.377888e+01 1.399382e+01
      vertex   -4.846415e+01 5.368531e+01 1.379497e+01
      vertex   -4.846415e+01 5.377888e+01 1.399382e+01
    endloop
  endfacet
  facet normal -4.960458e-15 -9.510565e-01 3.090170e-01
    outer loop
      vertex   -4.982645e+01 5.377888e+01 1.399382e+01
      vertex   -4.846415e+01 5.377888e+01 1.399382e+01
      vertex   -4.982645e+01 5.384679e+01 1.420283e+01
    endloop
  endfacet
  facet normal 0.000000e+00 -9.510565e-01 3.090170e-01
    outer loop
      vertex   -4.982645e+01 5.384679e+01 1.420283e+01
      vertex   -4.846415e+01 5.377888e+01 1.399382e+01
      vertex   -4.846415e+01 5.384679e+01 1.420283e+01
    endloop
  endfacet
  facet normal 0.000000e+00 -9.822873e-01 1.873813e-01
    outer loop
      vertex   -4.982645e+01 5.384679e+01 1.420283e+01
      vertex   -4.846415e+01 5.384679e+01 1.420283e+01
      vertex   -4.982645e+01 5.388797e+01 1.441870e+01
    endloop
  endfacet
  facet normal 0.000000e+00 -9.822873e-01 1.873813e-01
    outer loop
      vertex   -4.982645e+01 5.388797e+01 1.441870e+01
      vertex   -4.846415e+01 5.384679e+01 1.420283e+01
      vertex   -4.846415e+01 5.388797e+01 1.441870e+01
    endloop
  endfacet
  facet normal 0.000000e+00 -9.980267e-01 6.279052e-02
    outer loop
      vertex   -4.982645e+01 5.388797e+01 1.441870e+01
      vertex   -4.846415e+01 5.388797e+01 1.441870e+01
      vertex   -4.982645e+01 5.390177e+01 1.463804e+01
    endloop
  endfacet
  facet normal 0.000000e+00 -9.980267e-01 6.279052e-02
    outer loop
      vertex   -4.982645e+01 5.390177e+01 1.463804e+01
      vertex   -4.846415e+01 5.388797e+01 1.441870e+01
      vertex   -4.846415e+01 5.390177e+01 1.463804e+01
    endloop
  endfacet
  facet normal 0.000000e+00 1.000000e+00 0.000000e+00
    outer loop
      vertex   -4.846415e+01 5.040177e+01 1.800000e+01
      vertex   -4.846415e+01 5.040177e+01 1.463804e+01
      vertex   -4.982645e+01 5.040177e+01 1.800000e+01
    endloop
  endfacet
  facet normal 0.000000e+00 1.000000e+00 0.000000e+00
    outer loop
      vertex   -4.982645e+01 5.040177e+01 1.800000e+01
      vertex   -4.846415e+01 5.040177e+01 1.463804e+01
      vertex   -4.982645e+01 5.040177e+01 1.463804e+01
    endloop
  endfacet
  facet normal 1.000000e+00 0.000000e+00 0.000000e+00
    outer loop
      vertex   -4.846415e+01 5.040177e+01 1.800000e+01
      vertex   -4.846415e+01 4.606015e+01 1.800000e+01
      vertex   -4.846415e+01 5.040177e+01 1.463804e+01
    endloop
  endfacet
  facet normal 1.000000e+00 0.000000e+00 0.000000e+00
    outer loop
      vertex   -4.846415e+01 5.040177e+01 1.463804e+01
      vertex   -4.846415e+01 4.606015e+01 1.800000e+01
      vertex   -4.846415e+01 5.041557e+01 1.441870e+01
    endloop
  endfacet
  facet normal 1.000000e+00 0.000000e+00 0.000000e+00
    outer loop
      vertex   -4.846415e+01 5.041557e+01 1.441870e+01
      vertex   -4.846415e+01 4.606015e+01 1.800000e+01
      vertex   -4.846415e+01 5.045675e+01 1.420283e+01
    endloop
  endfacet
  facet normal 1.000000e+00 0.000000e+00 0.000000e+00
    outer loop
      vertex   -4.846415e+01 5.045675e+01 1.420283e+01
      vertex   -4.846415e+01 4.606015e+01 1.800000e+01
      vertex   -4.846415e+01 5.052466e+01 1.399382e+01
    endloop
  endfacet
  facet normal 1.000000e+00 0.000000e+00 0.000000e+00
    outer loop
      vertex   -4.846415e+01 5.052466e+01 1.399382e+01
      vertex   -4.846415e+01 4.606015e+01 1.800000e+01
      vertex   -4.846415e+01 4.606015e+01 -1.000000e+00
    endloop
  endfacet
  facet normal 1.000000e+00 0.000000e+00 0.000000e+00
    outer loop
      vertex   -4.846415e+01 5.052466e+01 1.399382e+01
      vertex   -4.846415e+01 4.606015e+01 -1.000000e+00
      vertex   -4.846415e+01 5.061823e+01 1.379497e+01
    endloop
  endfacet
  facet normal 1.000000e+00 0.000000e+00 0.000000e+00
    outer loop
      vertex   -4.846415e+01 5.061823e+01 1.379497e+01
      vertex   -4.846415e+01 4.606015e+01 -1.000000e+00
      vertex   -4.846415e+01 5.073599e+01 1.360941e+01
    endloop
  endfacet
  facet normal 1.000000e+00 0.000000e+00 0.000000e+00
    outer loop
      vertex   -4.846415e+01 5.073599e+01 1.360941e+01
      vertex   -4.846415e+01 4.606015e+01 -1.000000e+00
      vertex   -4.846415e+01 5.087607e+01 1.344008e+01
    endloop
  endfacet
  facet normal 1.000000e+00 0.000000e+00 0.000000e+00
    outer loop
      vertex   -4.846415e+01 5.087607e+01 1.344008e+01
      vertex   -4.846415e+01 4.606015e+01 -1.000000e+00
      vertex   -4.846415e+01 5.103628e+01 1.328964e+01
    endloop
  endfacet
  facet normal 1.000000e+00 0.000000e+00 0.000000e+00
    outer loop
      vertex   -4.846415e+01 5.103628e+01 1.328964e+01
      vertex   -4.846415e+01 4.606015e+01 -1.000000e+00
      vertex   -4.846415e+01 5.121407e+01 1.316046e+01
    endloop
  endfacet
  facet normal 1.000000e+00 0.000000e+00 0.000000e+00
    outer loop
      vertex   -4.846415e+01 5.121407e+01 1.316046e+01
      vertex   -4.846415e+01 4.606015e+01 -1.000000e+00
      vertex   -4.846415e+01 5.140666e+01 1.305459e+01
    endloop
  endfacet
  facet normal 1.000000e+00 0.000000e+00 0.000000e+00
    outer loop
      vertex   -4.846415e+01 5.140666e+01 1.305459e+01
      vertex   -4.846415e+01 4.606015e+01 -1.000000e+00
      vertex   -4.846415e+01 5.161099e+01 1.297369e+01
    endloop
  endfacet
  facet normal 1.000000e+00 0.000000e+00 0.000000e+00
    outer loop
      vertex   -4.846415e+01 5.161099e+01 1.297369e+01
      vertex   -4.846415e+01 4.606015e+01 -1.000000e+00
      vertex   -4.846415e+01 5.182385e+01 1.291903e+01
    endloop
  endfacet
  facet normal 1.000000e+00 0.000000e+00 0.000000e+00
    outer loop
      vertex   -4.846415e+01 5.182385e+01 1.291903e+01
      vertex   -4.846415e+01 4.606015e+01 -1.000000e+00
      vertex   -4.846415e+01 5.204189e+01 1.289149e+01
    endloop
  endfacet
  facet normal 1.000000e+00 0.000000e+00 0.000000e+00
    outer loop
      vertex   -4.846415e+01 5.204189e+01 1.289149e+01
      vertex   -4.846415e+01 4.606015e+01 -1.000000e+00
      vertex   -4.846415e+01 5.710177e+01 -1.000000e+00
    endloop
  endfacet
  facet normal 1.000000e+00 -0.000000e+00 0.000000e+00
    outer loop
      vertex   -4.846415e+01 5.204189e+01 1.289149e+01
      vertex   -4.846415e+01 5.710177e+01 -1.000000e+00
      vertex   -4.846415e+01 5.226165e+01 1.289149e+01
    endloop
  endfacet
  facet normal 1.000000e+00 -0.000000e+00 0.000000e+00
    outer loop
      vertex   -4.846415e+01 5.226165e+01 1.289149e+01
      vertex   -4.846415e+01 5.710177e+01 -1.000000e+00
      vertex   -4.846415e+01 5.247969e+01 1.291903e+01
    endloop
  endfacet
  facet normal 1.000000e+00 -0.000000e+00 0.000000e+00
    outer loop
      vertex   -4.846415e+01 5.247969e+01 1.291903e+01
      vertex   -4.846415e+01 5.710177e+01 -1.000000e+00
      vertex   -4.846415e+01 5.269255e+01 1.297369e+01
    endloop
  endfacet
  facet normal 1.000000e+00 -0.000000e+00 0.000000e+00
    outer loop
      vertex   -4.846415e+01 5.269255e+01 1.297369e+01
      vertex   -4.846415e+01 5.710177e+01 -1.000000e+00
      vertex   -4.846415e+01 5.289688e+01 1.305459e+01
    endloop
  endfacet
  facet normal 1.000000e+00 -0.000000e+00 0.000000e+00
    outer loop
      vertex   -4.846415e+01 5.289688e+01 1.305459e+01
      vertex   -4.846415e+01 5.710177e+01 -1.000000e+00
      vertex   -4.846415e+01 5.308947e+01 1.316046e+01
    endloop
  endfacet
  facet normal 1.000000e+00 -0.000000e+00 0.000000e+00
    outer loop
      vertex   -4.846415e+01 5.308947e+01 1.316046e+01
      vertex   -4.846415e+01 5.710177e+01 -1.000000e+00
      vertex   -4.846415e+01 5.326726e+01 1.328964e+01
    endloop
  endfacet
  facet normal 1.000000e+00 -0.000000e+00 0.000000e+00
    outer loop
      vertex   -4.846415e+01 5.326726e+01 1.328964e+01
      vertex   -4.846415e+01 5.710177e+01 -1.000000e+00
      vertex   -4.846415e+01 5.342746e+01 1.344008e+01
    endloop
  endfacet
  facet normal 1.000000e+00 -0.000000e+00 0.000000e+00
    outer loop
      vertex   -4.846415e+01 5.342746e+01 1.344008e+01
      vertex   -4.846415e+01 5.710177e+01 -1.000000e+00
      vertex   -4.846415e+01 5.356755e+01 1.360941e+01
    endloop
  endfacet
  facet normal 1.000000e+00 -0.000000e+00 0.000000e+00
    outer loop
      vertex   -4.846415e+01 5.356755e+01 1.360941e+01
      vertex   -4.846415e+01 5.710177e+01 -1.000000e+00
      vertex   -4.846415e+01 5.368531e+01 1.379497e+01
    endloop
  endfacet
  facet normal 1.000000e+00 -0.000000e+00 0.000000e+00
    outer loop
      vertex   -4.846415e+01 5.368531e+01 1.379497e+01
      vertex   -4.846415e+01 5.710177e+01 -1.000000e+00
      vertex   -4.846415e+01 5.377888e+01 1.399382e+01
    endloop
  endfacet
  facet normal 1.000000e+00 -0.000000e+00 0.000000e+00
    outer loop
      vertex   -4.846415e+01 5.377888e+01 1.399382e+01
      vertex   -4.846415e+01 5.710177e+01 -1.000000e+00
      vertex   -4.846415e+01 5.710177e+01 1.800000e+01
    endloop
  endfacet
  facet normal 1.000000e+00 0.000000e+00 0.000000e+00
    outer loop
      vertex   -4.846415e+01 5.377888e+01 1.399382e+01
      vertex   -4.846415e+01 5.710177e+01 1.800000e+01
      vertex   -4.846415e+01 5.384679e+01 1.420283e+01
    endloop
  endfacet
  facet normal 1.000000e+00 0.000000e+00 0.000000e+00
    outer loop
      vertex   -4.846415e+01 5.384679e+01 1.420283e+01
      vertex   -4.846415e+01 5.710177e+01 1.800000e+01
      vertex   -4.846415e+01 5.388797e+01 1.441870e+01
    endloop
  endfacet
  facet normal 1.000000e+00 0.000000e+00 0.000000e+00
    outer loop
      vertex   -4.846415e+01 5.388797e+01 1.441870e+01
      vertex   -4.846415e+01 5.710177e+01 1.800000e+01
      vertex   -4.846415e+01 5.390177e+01 1.463804e+01
    endloop
  endfacet
  facet normal 1.000000e+00 0.000000e+00 0.000000e+00
    outer loop
      vertex   -4.846415e+01 5.390177e+01 1.463804e+01
      vertex   -4.846415e+01 5.710177e+01 1.800000e+01
      vertex   -4.846415e+01 5.390177e+01 1.800000e+01
    endloop
  endfacet
  facet normal -0.000000e+00 1.000000e+00 0.000000e+00
    outer loop
      vertex   -4.982645e+01 5.710177e+01 1.800000e+01
      vertex   -4.846415e+01 5.710177e+01 1.800000e+01
      vertex   -4.982645e+01 5.710177e+01 -1.000000e+00
    endloop
  endfacet
  facet normal 0.000000e+00 1.000000e+00 0.000000e+00
    outer loop
      vertex   -4.982645e+01 5.710177e+01 -1.000000e+00
      vertex   -4.846415e+01 5.710177e+01 1.800000e+01
      vertex   -4.846415e+01 5.710177e+01 -1.000000e+00
    endloop
  endfacet
  facet normal 0.000000e+00 0.000000e+00 -1.000000e+00
    outer loop
      vertex   -4.982645e+01 5.710177e+01 -1.000000e+00
      vertex   -4.846415e+01 5.710177e+01 -1.000000e+00
      vertex   -4.982645e+01 4.606015e+01 -1.000000e+00
    endloop
  endfacet
  facet normal 0.000000e+00 0.000000e+00 -1.000000e+00
    outer loop
      vertex   -4.982645e+01 4.606015e+01 -1.000000e+00
      vertex   -4.846415e+01 5.710177e+01 -1.000000e+00
      vertex   -4.846415e+01 4.606015e+01 -1.000000e+00
    endloop
  endfacet
endsolid
